<svg xmlns="http://www.w3.org/2000/svg" width="118" height="117.9" viewBox="17.6 17.6 118 117.9"><path d="M100.6 49.2s2.8-5.9-3.5-11.6C93 34 89.8 22.5 90.5 20.4s-.3-4.9-1.4-.4c-1 3.8.7 11.9 5.2 17 2.8 3.2 5.4 5.3 4.7 10.6l1.6 1.6z"/><path fill="#331A0F" d="M99.2 54s-13.8-13.5-28.7.6c0 0 14.1 7.3 8.3 19.8L99.2 54z"/><path d="M90.6 49s4.1-5.6 8.9-1.1c2.6 2.5 1.4 4.4 1.4 4.4l-2.2 2.2s-2.9-3-8.1-5.5zM103.9 52.6s5.9-2.8 11.6 3.5c3.7 4.1 15.2 7.3 17.3 6.6s4.9.3.4 1.4c-3.8 1-11.9-.7-17-5.2-3.2-2.8-5.3-5.4-10.6-4.6l-1.7-1.7z"/><path fill="#331A0F" d="M99.2 53.9s13.5 13.8-.6 28.7c0 0-7.3-14.1-19.8-8.3l20.4-20.4z"/><path d="M104.1 62.5s5.6-4.1 1.1-8.9c-2.5-2.6-4.4-1.4-4.4-1.4l-2.2 2.2c.1.1 3 3 5.5 8.1z"/><path fill="#010202" d="M77.7 56.2c1.5 4.6 6.1 7.7 7.8 11.5 1.7 3.8 8.3 7.7 10.9 5s4.9-11.8 1.9-15.1 6.3-.9 4.8 11.7-10.6 15.9-10.6 15.9-20.3-11.7-20.6-11.9c-.2-.2-5.8-10.4-5.6-10.9.2-.5 1.6-5.4 1.6-5.4s8.3-5.5 9.8-.8z"/><path d="M39.5 79.7s-11.6 16.4 2.6 30.4c14.2 13.9 35.6 1.9 35.4 1.3-.2-.5-38-31.7-38-31.7zM77.1 71.4s-3.4-5.3-8-6.5c0 0-1.7.2-.3-1.9s8.3-12.7 5.9-17.4-8-8.3-7.7-10.4c.2-2.1-.6-3-1.7-2.3-1.2.7-1.6 1.5-1.6 1.5s.7-3.7-.7-3.2.2 3.5.2 3.5-2.4 3.1.5 3.3 8.1 4.5 8.7 7.6c.5 3.1-1.3 8-2.8 11.1-1.4 3-6.3 7.2-1.8 11 4.4 3.9 8.9 4.8 8.9 4.8l.4-1.1z"/><path d="M69.5 65.6c-.2 0-1.1-6.5-9.2-9 0 0-1.2.5-2.9 2.4s-7.3 6.6-9.6 6.2c-2.3-.4-9.4-4.2-9.4-4.2s-2.2-3.1-3.2-1.9c-1 1.2-.8 2.3-.8 2.3s-5.2-2.3-4.1-.2 3.3 1.7 3.3 1.7-1.5 3.1.6 2.9c2.1-.3 4.3-1.5 5.8-.9s4.6 2.1 6.5 3 2.5 1.5 3.9.1 9.9-8.9 9.9-8.9.6 5.6 5 6.9l4.2-.4zM54.6 74.7s-8-4.3-12.5-.3-7.4 10.3-10 10.6c-2.6.2-9.1-2.6-10.5-1.4s-1 2.5-1 2.5-1.8-3.1-2.6-1.2c-.8 1.9-.3 4.5.5 3.8s2.1-1.4 2.1-1.4.7 2.7 2.7 1.5 3.4-1.2 5.4-1.4c2-.2 5.4.5 6.5-1.4 0 0 6-9.6 9.6-9.2s4.6 4 4.6 4 6.3-3.4 5.2-6.1z"/><linearGradient id="a" gradientUnits="userSpaceOnUse" x1="36.132" y1="46.767" x2="64.665" y2="46.767" gradientTransform="rotate(45 -98.52 20.436)"><stop offset="0" stop-color="#b0191a"/><stop offset=".208" stop-color="#e94e22"/><stop offset=".528" stop-color="#ef7a57"/><stop offset="1" stop-color="#e84423"/></linearGradient><path fill="url(#a)" d="M79.4 73.2l-34.1 34.1s-1.7 1.6-4.9-1.7c-3.2-3.2-8.6-15.5-1.9-28.9 8-16 24.6-21.8 24.6-21.8s4.5-2.7 9.9 1.1c5.4 3.9 9.7 11.2 6.4 17.2z"/><path d="M81.7 75.6s5.3 3.4 6.5 8c0 0-.2 1.7 1.9.3s12.7-8.3 17.4-5.9c4.7 2.4 8.3 8 10.4 7.7 2.1-.2 3 .6 2.3 1.7-.7 1.2-1.5 1.6-1.5 1.6s3.7-.7 3.2.7-3.5-.2-3.5-.2-3.1 2.4-3.3-.5c-.2-2.9-4.5-8.1-7.6-8.7-3.1-.5-8 1.3-11.1 2.8-3 1.4-7.2 6.3-11 1.8-3.9-4.4-4.8-8.9-4.8-8.9l1.1-.4z"/><path d="M84.9 80.4c.1.2 6.6-.3 10.8 7 0 0-.2 1.3-1.7 3.4s-4.9 8.6-3.9 10.7c.9 2.1 6.1 8.3 6.1 8.3s3.5 1.5 2.6 2.7-2 1.2-2 1.2 3.3 4.6 1 4-2.4-2.9-2.4-2.9-2.7 2.2-2.9 0c-.2-2.1.5-4.5-.4-5.8s-3.1-4-4.3-5.7c-1.3-1.6-2-2.1-1-3.7C87.9 98 93.3 88 93.3 88s-5.6.6-7.8-3.4l-.6-4.2zM79.2 97.1s5.1 8.6 1 13.2-10.6 7.6-10.9 10.3c-.2 2.6 2.7 9.3 1.5 10.8s-2.5 1.1-2.5 1.1 3.2 1.8 1.2 2.6-4.7.3-3.9-.5c.7-.8 1.5-2.1 1.5-2.1s-2.8-.7-1.6-2.8c1.2-2.1 1.2-3.5 1.4-5.6.2-2.1-.5-5.5 1.4-6.7 0 0 9.9-6.2 9.5-9.9-.4-3.7-3.2-5.3-3.2-5.3s1.8-6.2 4.6-5.1z"/><linearGradient id="b" gradientUnits="userSpaceOnUse" x1="60.66" y1="46.746" x2="89.288" y2="46.746" gradientTransform="rotate(-135 85.408 72.68)"><stop offset="0" stop-color="#751613"/><stop offset=".209" stop-color="#bf391d"/><stop offset=".528" stop-color="#ef7a57"/><stop offset=".999" stop-color="#cf3320"/></linearGradient><path fill="url(#b)" d="M79.4 73.2l-34.1 34.1s-1.5 2.6 2.6 5.7c3.6 2.8 13.1 6.5 26.5 1 18.9-7.7 23.3-24.5 23.3-24.5s2.7-4.5-1.1-9.9c-3.8-5.3-11.2-9.7-17.2-6.4z"/><path opacity=".3" fill="#F4C490" d="M73.6 58.5c-.2-.2-5-5.5-14.1 2.6-9.2 8-11.1 26.5 2.2 21 8.7-3.5 22.9-16.1 11.9-23.6z"/><path opacity=".11" fill="#EBEABC" d="M91.4 76.1c-.2-.2-5.3-5.6-11.2-1-5.9 4.7-3.4 19.6 6.4 18 6.5-1.1 15.5-8.4 4.8-17z"/><path opacity=".47" fill="#331A0F" d="M77.9 60.9s6.6 10.5-19.1 33c0 0 21.5-20.7 29.3-21.1L77.9 60.9z"/><path opacity=".19" fill="#FFA88A" d="M96.4 55.6c-3-4.8-15.6-8.4-11.6.8 4.1 9.2 11.8 10.1 12.8 7.4.9-2.5 1-4.7-1.2-8.2z"/><path opacity=".09" fill="#F2AD91" d="M95.2 56.7c-3.7-6-19.4-10.4-14.4 1 5.1 11.4 14.6 12.5 16 9.2 1.3-3.4 1.4-5.6-1.6-10.2z"/><path opacity=".25" fill="#D11317" d="M38.5 77.5c4.2 2.5 7.3 5.1 26.2 11 16 5 29 7.5 29 7.5s-24.3 36.3-52.5 11.7c-13.5-11.9-2.7-30.2-2.7-30.2z"/><path opacity=".25" fill="#331A0F" d="M64.9 54.2s17.7 3.4 10.9 21.6c0 0 23.7 2.1 15.5 18.2 0 0-.3 2.9 2.6 0 5.4-5.4 6-14.2 1.9-19s-12.4-9-12.7-10C82.8 64 74 54.5 73 54.1c-.9-.4-6.6-.4-8.1.1z"/><linearGradient id="c" gradientUnits="userSpaceOnUse" x1="88.189" y1="43.571" x2="80.983" y2="61.071" gradientTransform="matrix(1.1102 -.1102 .1102 -1.1102 -26.453 173.385)"><stop offset="0" stop-color="#6c1512"/><stop offset=".996" stop-color="#d42900"/></linearGradient><path opacity=".81" fill="url(#c)" d="M88 73s1.5 4.3-8.9 14.9c-8.7 8.8-28.2 10.2-35 14.5-7.3 4.6 6.8 13.5 12.8 13.8 21.4 1.3 31.8-11.8 35.8-18 4.6-7.1 9.4-16.6-4.7-25.2z"/><path opacity=".47" fill="#331A0F" d="M37.5 101.1s5.1 7.8 12 1.5c8.7-8 13-12.4 13-12.4s-13.5 14-14.8 18.1c-1.6 5.1 8.7 8.1 8.7 8.1s-13.8 0-18.9-15.3z"/><path fill="#F96A58" d="M54 106.5s-9.9 3.4-1.3 7.3 19.6.3 15.8-4.1c-4-4.4-8.8-4.1-14.5-3.2z" opacity=".64"/><path opacity=".17" fill="#F4C490" d="M74.3 57c-7.2 1.1-16.7 3.9-17 11.3C57 74.4 63.8 79 71 81.6l8.4-8.4c3-5.5-.3-12.1-5.1-16.2z"/><path opacity=".1" fill="#F4C490" d="M82.2 56.4s-24.4 0-24.9 11.9c-.6 11.8 25 17.8 29.3 15.4 4.3-2.3 8.5-22.8-4.4-27.3z"/><path opacity=".35" fill="#EBE1E1" d="M47.9 101.4c.3 1.9-1.9 3.1-4.8 2.7-2.9-.4-5.5-2.2-5.8-4.1s1.9-3 4.8-2.7c3 .4 5.6 2.2 5.8 4.1z"/><path opacity=".44" fill="#FFCF9F" d="M73.5 60.1S62 61.7 61 67.3s10.6 6.8 12.8 5.4c2.2-1.4 5.5-11.3-.3-12.6z"/></svg>
